<svg version="1.1" xmlns="http://www.w3.org/2000/svg" xmlns:xlink="http://www.w3.org/1999/xlink" width="57.23405" height="57.23405" viewBox="0,0,57.23405,57.23405"><defs><linearGradient x1="269.04786" y1="195.96644" x2="221.7666" y2="168.66862" gradientUnits="userSpaceOnUse" id="color-1"><stop offset="0" stop-color="#3057a7"/><stop offset="1" stop-color="#5a7ac6"/></linearGradient><linearGradient x1="251.9863" y1="156.0127" x2="231.0144" y2="200.9871" gradientUnits="userSpaceOnUse" id="color-2"><stop offset="0" stop-color="#bcd6fe"/><stop offset="1" stop-color="#6787d3"/></linearGradient><linearGradient x1="264.4541" y1="191.7529" x2="218.5471" y2="165.2485" gradientUnits="userSpaceOnUse" id="color-3"><stop offset="0" stop-color="#3057a7"/><stop offset="1" stop-color="#5a7ac6"/></linearGradient></defs><g transform="translate(-213.2,-153.2)"><g data-paper-data="{&quot;isPaintingLayer&quot;:true}" fill-rule="nonzero" stroke-linecap="butt" stroke-linejoin="miter" stroke-miterlimit="10" stroke-dasharray="" stroke-dashoffset="0" style="mix-blend-mode: normal"><path d="M217.28937,183.86171c0,-14.6755 11.89684,-26.57234 26.57234,-26.57234c14.6755,0 26.57234,11.89684 26.57234,26.57234c0,14.6755 -11.89684,26.57234 -26.57234,26.57234c-14.6755,0 -26.57234,-11.89684 -26.57234,-26.57234z" fill-opacity="0.17047" fill="#000000" stroke="url(#color-1)" stroke-width="0"/><path d="M214.2,180c0,-14.24894 11.55106,-25.8 25.8,-25.8c14.24894,0 25.8,11.55106 25.8,25.8c0,14.24894 -11.55106,25.8 -25.8,25.8c-14.24894,0 -25.8,-11.55106 -25.8,-25.8z" fill="url(#color-2)" stroke="url(#color-3)" stroke-width="2"/><g fill="#ffffff" stroke="none" stroke-width="1"><path d="M232,174h12v19h4v4h-16v-4h4v-16h-4z"/><path d="M236,166c0,-2.20914 1.79086,-4 4,-4c2.20914,0 4,1.79086 4,4c0,2.20914 -1.79086,4 -4,4c-2.20914,0 -4,-1.79086 -4,-4z"/></g></g></g></svg>
